<?xml version="1.0" encoding="iso-8859-1"?>
<!-- Generator: Adobe Illustrator 18.0.0, SVG Export Plug-In . SVG Version: 6.00 Build 0)  -->
<!DOCTYPE svg PUBLIC "-//W3C//DTD SVG 1.1//EN" "http://www.w3.org/Graphics/SVG/1.1/DTD/svg11.dtd">
<svg version="1.1" id="Capa_1" xmlns="http://www.w3.org/2000/svg" xmlns:xlink="http://www.w3.org/1999/xlink" x="0px" y="0px"
	 viewBox="0 0 297 297" style="enable-background:new 0 0 297 297;" xml:space="preserve">
<path d="M287.033,76.596H55.301V51.168c0-5.504-4.462-9.967-9.966-9.967s-9.967,4.463-9.967,9.967v25.428H9.967
	C4.463,76.596,0,81.059,0,86.563v159.27c0,5.504,4.463,9.967,9.967,9.967h106.11c3.776,0,7.228-2.135,8.915-5.512l14.932-29.883
	h64.578c51.004,0,92.498-36.226,92.498-80.754V86.563C297,81.059,292.537,76.596,287.033,76.596z M277.067,96.528v33.156H19.933
	V96.528H277.067z M204.502,200.472h-70.74c-3.776,0-7.228,2.134-8.915,5.512l-14.932,29.883H19.933v-86.249h256.144
	C270.384,178.428,240.464,200.472,204.502,200.472z"/>
<g>
</g>
<g>
</g>
<g>
</g>
<g>
</g>
<g>
</g>
<g>
</g>
<g>
</g>
<g>
</g>
<g>
</g>
<g>
</g>
<g>
</g>
<g>
</g>
<g>
</g>
<g>
</g>
<g>
</g>
</svg>
