<?xml version="1.0" encoding="iso-8859-1"?>
<!-- Generator: Adobe Illustrator 19.0.0, SVG Export Plug-In . SVG Version: 6.00 Build 0)  -->
<svg version="1.1" id="Capa_1" xmlns="http://www.w3.org/2000/svg" xmlns:xlink="http://www.w3.org/1999/xlink" x="0px" y="0px"
	 viewBox="0 0 512 512" style="enable-background:new 0 0 512 512;" xml:space="preserve">
<g>
	<g>
		<g>
			<path d="M405.333,0H106.667C83.146,0,64,19.135,64,42.667v384c0,23.531,19.146,42.667,42.667,42.667v32
				c0,5.896,4.771,10.667,10.667,10.667H160c5.896,0,10.667-4.771,10.667-10.667v-32h170.667v32c0,5.896,4.771,10.667,10.667,10.667
				h42.667c5.896,0,10.667-4.771,10.667-10.667v-32c23.521,0,42.667-19.135,42.667-42.667v-384C448,19.135,428.854,0,405.333,0z
				 M149.333,490.667H128v-21.333h21.333V490.667z M245.333,448H106.667c-11.771,0-21.333-9.573-21.333-21.333v-384
				c0-11.76,9.563-21.333,21.333-21.333h138.667V448z M384,490.667h-21.333v-21.333H384V490.667z M426.667,426.667
				c0,11.76-9.563,21.333-21.333,21.333H266.667V21.333h138.667c11.771,0,21.333,9.573,21.333,21.333V426.667z"/>
			<path d="M288,234.667c-5.896,0-10.667,4.771-10.667,10.667v21.333c0,5.896,4.771,10.667,10.667,10.667
				s10.667-4.771,10.667-10.667v-21.333C298.667,239.438,293.896,234.667,288,234.667z"/>
			<path d="M224,277.333c5.896,0,10.667-4.771,10.667-10.667v-21.333c0-5.896-4.771-10.667-10.667-10.667
				s-10.667,4.771-10.667,10.667v21.333C213.333,272.563,218.104,277.333,224,277.333z"/>
		</g>
	</g>
</g>
<g>
</g>
<g>
</g>
<g>
</g>
<g>
</g>
<g>
</g>
<g>
</g>
<g>
</g>
<g>
</g>
<g>
</g>
<g>
</g>
<g>
</g>
<g>
</g>
<g>
</g>
<g>
</g>
<g>
</g>
</svg>
