<svg
  xmlns="http://www.w3.org/2000/svg"
  xmlns:xlink="http://www.w3.org/1999/xlink"
  width="72"
  height="31"
  viewBox="0 0 200 85"
>
  <defs>
    <path id="a" d="M.997.883h40.207v39.95H.997z"></path>
  </defs>
  <g fill="none" fill-rule="evenodd">
    <path
      fill="#326CF9"
      d="M0 4v50.845h36.551V40.318h-21.93V18.527h21.93V4zM47.518 4v29.054h14.62V18.527h14.62V4zM142.552 4v29.054h14.622V18.527h14.62V4zM116.967 4v10.895H106V4h-14.62v50.845h40.207V4h-14.621zM106 40.318h10.966V29.424H106v10.894z"
    ></path>
    <g transform="translate(139.729 39.434)">
      <mask id="b" fill="#fff">
        <use xlink:href="#a"></use>
      </mask>
      <path
        fill="#326CF9"
        d="M21.1 26.85c-3.331 0-6.03-2.682-6.03-5.991 0-3.31 2.699-5.992 6.03-5.992 3.331 0 6.03 2.682 6.03 5.992 0 3.309-2.699 5.992-6.03 5.992m0-25.968C9.997.883.997 9.827.997 20.86c0 11.03 9 19.974 20.103 19.974 11.103 0 20.104-8.943 20.104-19.974 0-11.032-9-19.976-20.104-19.976"
        mask="url(#b)"
      ></path>
    </g>
  </g>
</svg>