<?xml version="1.0" encoding="iso-8859-1"?>
<!-- Generator: Adobe Illustrator 19.0.0, SVG Export Plug-In . SVG Version: 6.00 Build 0)  -->
<svg version="1.1" id="Layer_1" xmlns="http://www.w3.org/2000/svg" xmlns:xlink="http://www.w3.org/1999/xlink" x="0px" y="0px"
	 viewBox="0 0 512 512" style="enable-background:new 0 0 512 512;" xml:space="preserve">
<g>
	<g>
		<path d="M299.448,133.825L236.822,71.2c-7.621-7.622-18.17-11.904-29.048-11.754c-21.838,0.307-39.595,18.324-39.583,40.163
			l0.014,27.285c-32.242,9.118-61.746,26.45-85.734,50.438c-37.33,37.331-57.888,86.963-57.888,139.755
			c0,52.791,20.558,102.423,57.888,139.754c28.307,28.307,63.873,47.141,102.852,54.467c2.464,0.463,4.938,0.69,7.397,0.69
			c9.193,0,18.146-3.185,25.355-9.165c9.12-7.566,14.35-18.701,14.35-30.551c0-19.065-13.547-35.463-32.213-38.991
			c-55.768-10.539-96.245-59.41-96.245-116.205c0-44.522,25.307-85.117,64.282-105.193l0.006,12.352
			c0.011,21.869,17.811,39.868,39.677,40.123c10.731,0.105,21.26-4.157,28.857-11.755l62.656-62.656
			C314.923,174.483,314.923,149.302,299.448,133.825z M285.024,175.535l-62.655,62.656c-3.737,3.738-8.922,5.874-14.195,5.783
			c-10.756-0.125-19.512-8.979-19.517-19.737l-0.015-27.912c-0.002-3.327-1.626-6.444-4.35-8.351
			c-2.725-1.906-6.208-2.367-9.335-1.229c-54.66,19.878-91.386,72.259-91.386,130.342c0,66.589,47.463,123.891,112.856,136.249
			c9.04,1.708,15.602,9.677,15.602,18.947c0,5.761-2.542,11.174-6.975,14.851c-4.451,3.692-10.266,5.203-15.96,4.128
			c-34.925-6.564-66.806-23.453-92.196-48.845c-33.477-33.477-51.914-77.987-51.914-125.33s18.436-91.854,51.914-125.331
			c23.25-23.25,52.255-39.523,83.879-47.062c4.595-1.095,7.836-5.203,7.834-9.926l-0.018-35.17
			c-0.006-10.742,8.729-19.604,19.565-19.757c0.091-0.001,0.18-0.002,0.271-0.002c5.207,0,10.285,2.099,13.971,5.785l62.626,62.626
			C292.546,155.772,292.546,168.013,285.024,175.535z"/>
	</g>
</g>
<g>
	<g>
		<path d="M238.111,199.433c-3.984-3.982-10.442-3.982-14.425,0l-1.417,1.417c-3.983,3.984-3.983,10.442,0,14.425
			c1.991,1.991,4.602,2.987,7.212,2.987s5.221-0.995,7.213-2.987l1.417-1.417C242.094,209.874,242.094,203.416,238.111,199.433z"/>
	</g>
</g>
<g>
	<g>
		<path d="M281.432,156.169c-3.984-3.982-10.442-3.982-14.425,0l-23.42,23.42c-3.983,3.984-3.983,10.442,0,14.425
			c1.991,1.991,4.602,2.987,7.212,2.987c2.61,0,5.221-0.996,7.213-2.987l23.42-23.42
			C285.415,166.61,285.415,160.152,281.432,156.169z"/>
	</g>
</g>
<g>
	<g>
		<path d="M487.417,194.913c0-52.793-20.559-102.425-57.888-139.754C401.221,26.851,365.655,8.017,326.677,0.691
			c-11.677-2.196-23.615,0.894-32.751,8.475c-9.12,7.566-14.35,18.701-14.35,30.551c0,19.065,13.547,35.463,32.213,38.991
			c55.768,10.539,96.245,59.41,96.245,116.206c0,44.522-25.307,85.116-64.282,105.192l-0.006-12.353
			c-0.012-21.868-17.812-39.867-39.677-40.122c-10.748-0.165-21.262,4.157-28.858,11.755l-62.656,62.656
			c-15.475,15.476-15.475,40.658,0,56.134l62.627,62.627c7.492,7.49,17.815,11.758,28.367,11.758c0.183,0,0.366-0.001,0.55-0.005
			c0.012,0,0.118-0.001,0.131-0.001c21.837-0.307,39.594-18.324,39.583-40.164l-0.014-27.285
			c32.243-9.119,61.747-26.45,85.733-50.438C466.858,297.339,487.417,247.706,487.417,194.913z M331.226,367.306
			c-4.595,1.095-7.836,5.203-7.834,9.926l0.018,35.169c0.006,10.743-8.729,19.607-19.435,19.757c-0.011,0-0.118,0.001-0.13,0.001
			c-5.329,0.055-10.494-2.034-14.242-5.782l-62.627-62.627c-7.522-7.522-7.522-19.763,0-27.285l62.655-62.656
			c3.684-3.683,8.763-5.784,13.969-5.784c0.076,0,0.152,0,0.226,0.001c10.756,0.125,19.511,8.979,19.517,19.737l0.014,27.913
			c0.001,3.327,1.626,6.444,4.35,8.351c2.725,1.906,6.208,2.367,9.335,1.229c54.66-19.878,91.386-72.259,91.386-130.341
			c0-66.59-47.463-123.892-112.856-136.25c-9.04-1.708-15.602-9.677-15.602-18.947c0-5.761,2.543-11.174,6.975-14.851
			c4.451-3.693,10.267-5.198,15.96-4.127c34.924,6.563,66.805,23.452,92.196,48.845c33.477,33.475,51.914,77.986,51.914,125.33
			s-18.436,91.855-51.914,125.33C391.854,343.494,362.851,359.768,331.226,367.306z"/>
	</g>
</g>
<g>
</g>
<g>
</g>
<g>
</g>
<g>
</g>
<g>
</g>
<g>
</g>
<g>
</g>
<g>
</g>
<g>
</g>
<g>
</g>
<g>
</g>
<g>
</g>
<g>
</g>
<g>
</g>
<g>
</g>
</svg>
