<?xml version="1.0" encoding="UTF-8"?>
<svg xmlns="http://www.w3.org/2000/svg" id="Layer_1" data-name="Layer 1" viewBox="0 0 512 512" width="512" height="512"><path d="M182.96,58H165.04A12.041,12.041,0,0,0,153,70.04v99.92A12.041,12.041,0,0,0,165.04,182h17.92A12.041,12.041,0,0,0,195,169.96V70.04A12.041,12.041,0,0,0,182.96,58ZM183,170.473l-.053.04-18.16-.04.04-100.3L183,70.21Z"/><path d="M369,10H143a28,28,0,0,0-28,28V436a28,28,0,0,0,28,28h16.463l2.837,32.521A6,6,0,0,0,168.277,502h37.194a6,6,0,0,0,5.977-5.479L214.286,464h83.428l2.838,32.521A6,6,0,0,0,306.529,502h37.194a6,6,0,0,0,5.977-5.479L352.537,464H369a28,28,0,0,0,28-28V38A28,28,0,0,0,369,10ZM199.972,490h-26.2l-2.269-26H202.24Zm-56.8-38A16.055,16.055,0,0,1,127,436.13V38a16.166,16.166,0,0,1,16.171-16H337V452Zm195.052,38H312.028l-2.268-26h30.732ZM385,436.13A16.055,16.055,0,0,1,368.829,452H349V22h19.829A16.166,16.166,0,0,1,385,38Z"/></svg>
