<svg id="Capa_1" enable-background="new 0 0 512 512" height="512" viewBox="0 0 512 512" width="512" xmlns="http://www.w3.org/2000/svg"><g><g><path d="m484.5 60.24h-43.376c-4.143 0-7.5 3.357-7.5 7.5s3.357 7.5 7.5 7.5h43.376c6.893 0 12.5 5.607 12.5 12.5v336.52c0 6.893-5.607 12.5-12.5 12.5h-400c-4.143 0-7.5 3.357-7.5 7.5s3.357 7.5 7.5 7.5h400c15.164 0 27.5-12.337 27.5-27.5v-336.52c0-15.163-12.336-27.5-27.5-27.5z"/><path d="m49.5 436.76h-22c-6.893 0-12.5-5.607-12.5-12.5v-336.52c0-6.947 5.642-12.5 12.5-12.5h378.624c4.143 0 7.5-3.357 7.5-7.5s-3.357-7.5-7.5-7.5h-378.624c-15.117 0-27.5 12.259-27.5 27.5v336.52c0 15.163 12.336 27.5 27.5 27.5h22c4.143 0 7.5-3.357 7.5-7.5s-3.357-7.5-7.5-7.5z"/><path d="m380.549 302.075v-10.947c42.182-3.605 75.897-37.321 79.503-79.504h10.947c4.143 0 7.5-3.357 7.5-7.5s-3.357-7.5-7.5-7.5h-10.947c-3.605-42.182-37.321-75.897-79.503-79.503v-10.947c0-4.143-3.357-7.5-7.5-7.5s-7.5 3.357-7.5 7.5v10.947c-42.182 3.605-75.898 37.321-79.504 79.503h-10.945c-4.143 0-7.5 3.357-7.5 7.5s3.357 7.5 7.5 7.5h10.946c3.605 42.182 37.321 75.898 79.504 79.504v10.947c0 4.143 3.357 7.5 7.5 7.5s7.499-3.357 7.499-7.5zm0-26.01v-25.111c20.155-3.217 36.111-19.173 39.328-39.329h25.111c-3.509 33.906-30.535 60.931-64.439 64.44zm0-143.879c33.905 3.509 60.93 30.535 64.439 64.439h-25.111c-3.217-20.155-19.173-36.111-39.328-39.328zm-15 0v25.111c-20.155 3.217-36.112 19.173-39.329 39.328h-25.111c3.509-33.905 30.534-60.93 64.44-64.439zm0 143.879c-33.906-3.509-60.931-30.535-64.44-64.44h25.111c3.217 20.155 19.173 36.112 39.329 39.329zm0-55.079v14.681c-11.866-2.822-21.221-12.177-24.043-24.043h14.681c4.143 0 7.5-3.357 7.5-7.5s-3.357-7.5-7.5-7.5h-14.681c2.822-11.865 12.177-21.22 24.043-24.042v14.681c0 4.143 3.357 7.5 7.5 7.5s7.5-3.357 7.5-7.5v-14.681c11.865 2.822 21.22 12.176 24.042 24.042h-14.68c-4.143 0-7.5 3.357-7.5 7.5s3.357 7.5 7.5 7.5h14.68c-2.822 11.866-12.177 21.221-24.042 24.043v-14.681c0-4.143-3.357-7.5-7.5-7.5s-7.5 3.358-7.5 7.5z"/><path d="m236.9 211.625c4.143 0 7.5-3.357 7.5-7.5s-3.357-7.5-7.5-7.5h-10.947c-3.605-42.182-37.321-75.897-79.503-79.503v-10.947c0-4.143-3.357-7.5-7.5-7.5s-7.5 3.357-7.5 7.5v10.947c-42.182 3.605-75.898 37.321-79.504 79.503h-10.944c-4.143 0-7.5 3.357-7.5 7.5s3.357 7.5 7.5 7.5h10.946c3.605 42.182 37.321 75.898 79.504 79.504v10.947c0 4.143 3.357 7.5 7.5 7.5s7.5-3.357 7.5-7.5v-10.947c42.182-3.605 75.897-37.321 79.503-79.504zm-105.449-79.439v25.111c-20.155 3.217-36.112 19.173-39.329 39.328h-25.111c3.509-33.905 30.535-60.93 64.44-64.439zm0 143.879c-33.906-3.509-60.931-30.535-64.44-64.44h25.111c3.217 20.155 19.173 36.112 39.329 39.329zm7.5-62.579c-4.143 0-7.5 3.357-7.5 7.5v14.681c-11.866-2.822-21.221-12.177-24.043-24.043h14.681c4.143 0 7.5-3.357 7.5-7.5s-3.357-7.5-7.5-7.5h-14.681c2.822-11.865 12.177-21.22 24.043-24.042v14.681c0 4.143 3.357 7.5 7.5 7.5s7.5-3.357 7.5-7.5v-14.681c11.865 2.822 21.22 12.176 24.042 24.042h-14.68c-4.143 0-7.5 3.357-7.5 7.5s3.357 7.5 7.5 7.5h14.68c-2.822 11.866-12.177 21.221-24.042 24.043v-14.681c0-4.142-3.357-7.5-7.5-7.5zm7.5 62.579v-25.111c20.155-3.217 36.111-19.173 39.328-39.329h25.111c-3.509 33.906-30.534 60.931-64.439 64.44zm39.328-79.44c-3.217-20.155-19.173-36.111-39.328-39.328v-25.111c33.905 3.509 60.93 30.535 64.439 64.439z"/><path d="m256 413.324c18.889 0 34.255-15.366 34.255-34.255 0-16.312-11.463-29.988-26.755-33.418v-5.337c0-4.143-3.357-7.5-7.5-7.5s-7.5 3.357-7.5 7.5v5.337c-15.292 3.43-26.755 17.106-26.755 33.418 0 18.889 15.366 34.255 34.255 34.255zm7.5-51.988c6.902 2.93 11.755 9.775 11.755 17.733s-4.853 14.803-11.755 17.733zm-15 0v35.467c-6.902-2.93-11.755-9.775-11.755-17.733s4.853-14.804 11.755-17.734z"/><path d="m170.961 332.814c-4.143 0-7.5 3.357-7.5 7.5v5.337c-15.292 3.43-26.755 17.106-26.755 33.418 0 18.889 15.366 34.255 34.255 34.255s34.255-15.366 34.255-34.255c0-16.312-11.463-29.988-26.755-33.418v-5.337c0-4.142-3.357-7.5-7.5-7.5zm-7.5 63.989c-6.902-2.93-11.755-9.775-11.755-17.733s4.853-14.803 11.755-17.733zm26.755-17.734c0 7.958-4.853 14.803-11.755 17.733v-35.467c6.902 2.931 11.755 9.776 11.755 17.734z"/><path d="m341.039 332.814c-4.143 0-7.5 3.357-7.5 7.5v5.337c-15.292 3.43-26.755 17.106-26.755 33.418 0 18.889 15.366 34.255 34.255 34.255s34.255-15.366 34.255-34.255c0-16.312-11.463-29.988-26.755-33.418v-5.337c0-4.142-3.357-7.5-7.5-7.5zm-7.5 63.989c-6.902-2.93-11.755-9.775-11.755-17.733s4.853-14.803 11.755-17.733zm26.755-17.734c0 7.958-4.853 14.803-11.755 17.733v-35.467c6.902 2.931 11.755 9.776 11.755 17.734z"/></g></g></svg>