<svg id="Layer_1" height="512" viewBox="0 0 512 512" width="512" xmlns="http://www.w3.org/2000/svg" data-name="Layer 1"><path d="m192.113 248.016v42.107a26.029 26.029 0 0 0 26 26h214.418a26.029 26.029 0 0 0 26-26v-162.267a6 6 0 0 0 -6-6h-254.418a6 6 0 0 0 -6 6v71.354l-103.884-65.8h-.006l-47.023-29.786a20.32 20.32 0 1 0 -21.75 34.333l159.385 100.95zm12-114.16h242.418v156.267a14.015 14.015 0 0 1 -14 14h-214.418a14.016 14.016 0 0 1 -14-14zm-12 99.608-6.58-4.514c-.06-.042-.122-.082-.183-.121l-107.384-68.013 8.905-14.059 105.242 66.657zm-169.913-110.851a8.32 8.32 0 0 1 12.571-8.851l41.958 26.574-8.9 14.059-41.959-26.576a8.261 8.261 0 0 1 -3.67-5.206z"/><path d="m230.972 232.077a6 6 0 0 0 6-6v-72.071a6 6 0 0 0 -12 0v72.071a6 6 0 0 0 6 6z"/><path d="m230.972 278.075a6 6 0 0 0 6-6v-7.883a6 6 0 0 0 -12 0v7.883a6 6 0 0 0 6 6z"/><path d="m467.021 368.925h-283.4a35.018 35.018 0 0 0 -34.975 34.975v44.27a35.018 35.018 0 0 0 34.979 34.979h283.4a35.018 35.018 0 0 0 34.975-34.976v-44.273a35.018 35.018 0 0 0 -34.979-34.975zm22.979 79.248a23.005 23.005 0 0 1 -22.979 22.979h-283.4a23 23 0 0 1 -22.979-22.979v-44.273a23 23 0 0 1 22.979-22.978h283.4a23.005 23.005 0 0 1 22.979 22.978z"/><path d="m219.523 398.3a27.734 27.734 0 1 0 27.735 27.734 27.765 27.765 0 0 0 -27.735-27.734zm0 43.468a15.734 15.734 0 1 1 15.735-15.734 15.752 15.752 0 0 1 -15.735 15.738z"/><path d="m452.856 420.038h-138.191a6 6 0 1 0 0 12h138.191a6 6 0 0 0 0-12z"/><path d="m315.322 105.048a6 6 0 0 0 12 0c0-5 1.32-7.2 3.145-10.245 2.163-3.605 4.855-8.091 4.855-16.42s-2.692-12.815-4.854-16.42c-1.826-3.043-3.146-5.242-3.146-10.247s1.32-7.2 3.146-10.247c.468-.78.933-1.56 1.38-2.374a6 6 0 1 0 -10.526-5.764c-.369.674-.757 1.318-1.144 1.963-2.163 3.605-4.856 8.092-4.856 16.422s2.693 12.815 4.856 16.421c1.825 3.043 3.144 5.241 3.144 10.246s-1.319 7.2-3.144 10.246a28.46 28.46 0 0 0 -4.856 16.419z"/><path d="m373.761 105.048a6 6 0 0 0 12 0c0-5 1.319-7.2 3.144-10.245 2.163-3.605 4.856-8.092 4.856-16.42s-2.693-12.815-4.855-16.42c-1.826-3.043-3.145-5.242-3.145-10.247s1.319-7.2 3.145-10.248c.706-1.177 1.436-2.394 2.133-3.829a6 6 0 1 0 -10.795-5.239c-.465.958-1.03 1.9-1.628 2.9a28.471 28.471 0 0 0 -4.855 16.422c0 8.329 2.692 12.815 4.855 16.421 1.825 3.043 3.145 5.241 3.145 10.246s-1.32 7.2-3.145 10.246a28.46 28.46 0 0 0 -4.855 16.413z"/><path d="m265.128 105.048a6 6 0 0 0 12 0c0-5 1.319-7.2 3.144-10.245a28.456 28.456 0 0 0 4.856-16.42 28.467 28.467 0 0 0 -4.855-16.42c-1.826-3.043-3.145-5.242-3.145-10.247s1.319-7.2 3.144-10.247c.708-1.181 1.51-2.518 2.237-4.045a6 6 0 0 0 -10.838-5.153c-.478 1-1.066 1.986-1.689 3.024a28.468 28.468 0 0 0 -4.854 16.421c0 8.329 2.692 12.815 4.855 16.421 1.826 3.043 3.145 5.241 3.145 10.246s-1.319 7.2-3.145 10.246a28.46 28.46 0 0 0 -4.855 16.419z"/></svg>