<svg id="Layer_2" height="512" viewBox="0 0 128 128" width="512" xmlns="http://www.w3.org/2000/svg" data-name="Layer 2"><path d="m122.25 19.333h-116.5a5.757 5.757 0 0 0 -5.75 5.75v67.334a5.757 5.757 0 0 0 5.75 5.75h4.25v4.75a5.757 5.757 0 0 0 5.75 5.75h17.083a5.757 5.757 0 0 0 5.75-5.75v-4.75h50.834v4.75a5.757 5.757 0 0 0 5.75 5.75h17.083a5.757 5.757 0 0 0 5.75-5.75v-4.75h4.25a5.757 5.757 0 0 0 5.75-5.75v-67.334a5.757 5.757 0 0 0 -5.75-5.75zm-87.167 83.584a2.253 2.253 0 0 1 -2.25 2.25h-17.083a2.253 2.253 0 0 1 -2.25-2.25v-4.75h21.583zm79.417 0a2.253 2.253 0 0 1 -2.25 2.25h-17.083a2.253 2.253 0 0 1 -2.25-2.25v-4.75h21.583zm10-10.5a2.253 2.253 0 0 1 -2.25 2.25h-116.5a2.253 2.253 0 0 1 -2.25-2.25v-67.334a2.253 2.253 0 0 1 2.25-2.25h116.5a2.253 2.253 0 0 1 2.25 2.25z"/><path d="m111.542 29.333h-3.826a6.459 6.459 0 0 0 0 12.917h3.826a6.459 6.459 0 0 0 0-12.917zm0 9.417h-3.826a2.961 2.961 0 0 1 -2.958-2.958 2.962 2.962 0 0 1 2.958-2.959h3.826a2.959 2.959 0 0 1 0 5.917z"/><path d="m111.542 48.758h-3.826a6.458 6.458 0 0 0 0 12.916h3.826a6.458 6.458 0 0 0 0-12.916zm0 9.416h-3.826a2.958 2.958 0 0 1 0-5.916h3.826a2.958 2.958 0 0 1 0 5.916z"/><path d="m93 29.333h-81.25a1.751 1.751 0 0 0 -1.75 1.75v55.334a1.751 1.751 0 0 0 1.75 1.75h81.25a1.751 1.751 0 0 0 1.75-1.75v-55.334a1.751 1.751 0 0 0 -1.75-1.75zm-1.75 55.334h-77.75v-51.834h77.75z"/><path d="m44.562 68.313a1.747 1.747 0 0 0 1.248-.523c5.427-5.516 14.282-14.458 15.366-15.408a1.75 1.75 0 0 0 -.989-3.194c-.982 0-.982 0-16.872 16.147a1.751 1.751 0 0 0 1.247 2.978z"/><path d="m27.758 65.1a1.746 1.746 0 0 0 1.248-.522c3.128-3.18 8.252-8.354 8.993-9.023a1.75 1.75 0 0 0 -1.032-3.155c-.881 0-.881 0-10.456 9.73a1.75 1.75 0 0 0 1.247 2.97z"/><path d="m67.783 65.1a1.746 1.746 0 0 0 1.248-.522c3.128-3.18 8.252-8.354 8.993-9.023a1.75 1.75 0 0 0 -1.032-3.155c-.881 0-.881 0-10.456 9.73a1.75 1.75 0 0 0 1.247 2.97z"/><path d="m116.25 68.183h-13.242a1.75 1.75 0 0 0 0 3.5h13.242a1.75 1.75 0 0 0 0-3.5z"/><path d="m116.25 78.19h-13.242a1.75 1.75 0 1 0 0 3.5h13.242a1.75 1.75 0 0 0 0-3.5z"/></svg>