<svg id="Layer_1" height="512" viewBox="0 0 55 55" width="512" xmlns="http://www.w3.org/2000/svg" data-name="Layer 1"><path d="m19.08 52.25a13.1 13.1 0 0 1 -13.08-13.1v-32.44a4 4 0 0 1 4-4h18.21a4 4 0 0 1 4 4v29.29a.75.75 0 0 1 -.69.75l-8.12.61a4.56 4.56 0 0 1 0 2.8l7.9.6a.77.77 0 0 1 .54.29.76.76 0 0 1 .14.6 13.09 13.09 0 0 1 -12.9 10.6zm-9.08-48a2.46 2.46 0 0 0 -2.51 2.46v32.44a11.59 11.59 0 0 0 22.79 3l-8.12-.62a.74.74 0 0 1 -.62-.41.78.78 0 0 1 0-.74 3 3 0 0 0 0-3.31.75.75 0 0 1 .57-1.16l8.52-.65v-28.55a2.46 2.46 0 0 0 -2.46-2.46z"/><path d="m19.08 43.23a4.5 4.5 0 1 1 4.5-4.51 4.52 4.52 0 0 1 -4.5 4.51zm0-7.5a3 3 0 1 0 2.5 1.34 3 3 0 0 0 -2.5-1.34z"/><path d="m44.53 43.23h-.36l-22-1.68a.74.74 0 0 1 -.62-.41.78.78 0 0 1 0-.74 3 3 0 0 0 0-3.31.75.75 0 0 1 .57-1.16l22.08-1.69a4.43 4.43 0 0 1 3.38 1.19 4.51 4.51 0 0 1 -3 7.8zm-21.17-3.11 21 1.6h.22a3 3 0 1 0 -.22-6l-21 1.58a4.56 4.56 0 0 1 0 2.8z"/><path d="m13.84 11.92h-3.07a.75.75 0 0 1 -.75-.75v-3.07a.74.74 0 0 1 .75-.75h3.07a.75.75 0 0 1 .75.75v3.07a.76.76 0 0 1 -.75.75zm-2.32-1.5h1.57v-1.57h-1.57z"/><path d="m20.67 11.92h-3.07a.76.76 0 0 1 -.75-.75v-3.07a.75.75 0 0 1 .75-.75h3.07a.75.75 0 0 1 .75.75v3.07a.76.76 0 0 1 -.75.75zm-2.32-1.5h1.57v-1.57h-1.57z"/><path d="m27.5 11.92h-3.07a.76.76 0 0 1 -.75-.75v-3.07a.75.75 0 0 1 .75-.75h3.07a.75.75 0 0 1 .75.75v3.07a.76.76 0 0 1 -.75.75zm-2.32-1.5h1.57v-1.57h-1.57z"/><path d="m13.84 19.16h-3.07a.75.75 0 0 1 -.75-.75v-3.07a.75.75 0 0 1 .75-.75h3.07a.76.76 0 0 1 .75.75v3.07a.76.76 0 0 1 -.75.75zm-2.32-1.5h1.57v-1.57h-1.57z"/><path d="m20.67 19.16h-3.07a.76.76 0 0 1 -.75-.75v-3.07a.76.76 0 0 1 .75-.75h3.07a.76.76 0 0 1 .75.75v3.07a.76.76 0 0 1 -.75.75zm-2.32-1.5h1.57v-1.57h-1.57z"/><path d="m27.5 19.16h-3.07a.76.76 0 0 1 -.75-.75v-3.07a.76.76 0 0 1 .75-.75h3.07a.76.76 0 0 1 .75.75v3.07a.76.76 0 0 1 -.75.75zm-2.32-1.5h1.57v-1.57h-1.57z"/><path d="m13.84 26.4h-3.07a.74.74 0 0 1 -.75-.75v-3.06a.74.74 0 0 1 .75-.75h3.07a.75.75 0 0 1 .75.75v3.06a.75.75 0 0 1 -.75.75zm-2.32-1.5h1.57v-1.56h-1.57z"/><path d="m20.67 26.4h-3.07a.75.75 0 0 1 -.75-.75v-3.06a.75.75 0 0 1 .75-.75h3.07a.75.75 0 0 1 .75.75v3.06a.75.75 0 0 1 -.75.75zm-2.32-1.5h1.57v-1.56h-1.57z"/><path d="m27.5 26.4h-3.07a.75.75 0 0 1 -.75-.75v-3.06a.75.75 0 0 1 .75-.75h3.07a.75.75 0 0 1 .75.75v3.06a.75.75 0 0 1 -.75.75zm-2.32-1.5h1.57v-1.56h-1.57z"/></svg>