<svg height="512" viewBox="0 0 512 512" width="512" xmlns="http://www.w3.org/2000/svg"><g><path d="m428 8h-344a28.031 28.031 0 0 0 -28 28v440a28.031 28.031 0 0 0 28 28h344a28.031 28.031 0 0 0 28-28v-440a28.031 28.031 0 0 0 -28-28zm12 468a12.01 12.01 0 0 1 -12 12h-344a12.01 12.01 0 0 1 -12-12v-372h368zm0-388h-368v-52a12.01 12.01 0 0 1 12-12h344a12.01 12.01 0 0 1 12 12z"/><path d="m256 176a112 112 0 1 0 112 112 112.127 112.127 0 0 0 -112-112zm0 208a96 96 0 1 1 96-96 96.108 96.108 0 0 1 -96 96z"/><path d="m88 80h32a8 8 0 0 0 8-8v-32a8 8 0 0 0 -8-8h-32a8 8 0 0 0 -8 8v32a8 8 0 0 0 8 8zm8-32h16v16h-16z"/><path d="m144 80h32a8 8 0 0 0 8-8v-32a8 8 0 0 0 -8-8h-32a8 8 0 0 0 -8 8v32a8 8 0 0 0 8 8zm8-32h16v16h-16z"/><path d="m200 80h32a8 8 0 0 0 8-8v-32a8 8 0 0 0 -8-8h-32a8 8 0 0 0 -8 8v32a8 8 0 0 0 8 8zm8-32h16v16h-16z"/><path d="m404 232h-12a7.916 7.916 0 0 0 -3.08.62 144.229 144.229 0 0 0 -132.92-88.62c-79.4 0-144 64.6-144 144s64.6 144 144 144a144.229 144.229 0 0 0 132.92-88.62 7.916 7.916 0 0 0 3.08.62h12a28.031 28.031 0 0 0 28-28v-56a28.031 28.031 0 0 0 -28-28zm-148 184a128 128 0 1 1 128-128 128.144 128.144 0 0 1 -128 128zm160-100a12.01 12.01 0 0 1 -12 12h-4v-80h4a12.01 12.01 0 0 1 12 12z"/></g></svg>